<?xml version="1.0" encoding="utf-8"?>
<!-- Svg Vector Icons : http://www.onlinewebfonts.com/icon -->
<!DOCTYPE svg PUBLIC "-//W3C//DTD SVG 1.1//EN" "http://www.w3.org/Graphics/SVG/1.1/DTD/svg11.dtd">
<svg version="1.1" xmlns="http://www.w3.org/2000/svg" xmlns:xlink="http://www.w3.org/1999/xlink" x="0px" y="0px" viewBox="0 0 1000 1000" enable-background="new 0 0 1000 1000" xml:space="preserve">
  <metadata> Svg Vector Icons : http://www.onlinewebfonts.com/icon </metadata>
  <g>
    <path fill="#ffffff" d="M856.6,762.1c-16.7,0-30.3-13.5-30.4-30.3c0-16.8,13.5-30.4,30.3-30.4l103-0.3c0,0,0.1,0,0.1,0c16.7,0,30.3,13.5,30.4,30.3c0,16.8-13.5,30.4-30.3,30.4L856.6,762.1C856.7,762.1,856.6,762.1,856.6,762.1z" />
    <path fill="#ffffff" d="M503.9,401.6c-16.7,0-30.3-13.5-30.4-30.3l-0.3-103c0-16.8,13.5-30.4,30.3-30.4c0,0,0.1,0,0.1,0c16.7,0,30.3,13.5,30.4,30.3l0.3,103C534.3,387.9,520.7,401.6,503.9,401.6C503.9,401.6,503.9,401.6,503.9,401.6z" />
    <path fill="#ffffff" d="M784,485.6c-7.7,0-15.5-2.9-21.4-8.8c-11.9-11.8-11.9-31-0.1-42.9l72.7-73c11.8-11.9,31-11.9,42.9-0.1c11.9,11.8,11.9,31,0.1,42.9l-72.7,73C799.5,482.6,791.8,485.6,784,485.6z" />
    <path fill="#ffffff" d="M40.4,754.6c-16.7,0-30.3-13.5-30.4-30.3c0-16.8,13.5-30.4,30.3-30.4l103-0.3c0,0,0.1,0,0.1,0c16.7,0,30.3,13.5,30.4,30.3c0,16.8-13.5,30.4-30.3,30.4L40.4,754.6C40.4,754.6,40.4,754.6,40.4,754.6z" />
    <path fill="#ffffff" d="M227.1,474.3c-7.7,0-15.5-2.9-21.4-8.8l-73-72.7c-11.9-11.8-11.9-31-0.1-42.9c11.8-11.9,31-11.9,42.9-0.1l73,72.7c11.9,11.8,11.9,31,0.1,42.9C242.7,471.3,234.9,474.3,227.1,474.3z" />
    <path fill="#ffffff" d="M817.5,758.2H182.5v-30.4c0-84.8,33-164.5,93-224.5c60-60,139.7-93,224.5-93c84.8,0,164.5,33,224.5,93c60,60,93,139.7,93,224.5V758.2z M245,697.5H755c-15.1-127.3-123.7-226.4-255-226.4C368.7,471.1,260.1,570.2,245,697.5z" />
  </g>
</svg>