<?xml version="1.0" encoding="utf-8"?>
<!-- Svg Vector Icons : http://www.onlinewebfonts.com/icon -->
<!DOCTYPE svg PUBLIC "-//W3C//DTD SVG 1.1//EN" "http://www.w3.org/Graphics/SVG/1.1/DTD/svg11.dtd">
<svg version="1.1" xmlns="http://www.w3.org/2000/svg" xmlns:xlink="http://www.w3.org/1999/xlink" x="0px" y="0px" viewBox="0 0 1000 1000" enable-background="new 0 0 1000 1000" xml:space="preserve">
  <metadata> Svg Vector Icons : http://www.onlinewebfonts.com/icon </metadata>
  <g>
    <g transform="translate(0.000000,511.000000) scale(0.100000,-0.100000)">
      <path fill="#ffffff" d="M4830.9,4973c-40-18.9-94.6-67.3-119.9-107.3c-48.4-71.5-48.4-77.8-48.4-780.3s0-708.8,48.4-780.3c61-90.4,168.3-145.1,288.2-145.1c119.9,0,227.1,54.7,288.2,145.1c48.4,71.5,48.4,77.8,48.4,780.3s0,708.8-48.4,780.3c-61,90.4-168.3,145.1-288.2,145.1C4946.6,5010.8,4870.9,4994,4830.9,4973z" />
      <path fill="#ffffff" d="M1593.9,3622.6c-157.8-115.7-212.4-279.7-140.9-416.5c52.6-96.8,1005.4-1030.6,1070.6-1045.4c98.9-25.2,201.9,8.4,298.7,96.8c107.3,98.9,147.2,197.7,126.2,309.2c-12.6,65.2-88.3,153.5-500.6,567.9c-269.2,271.3-513.2,504.8-544.8,521.6C1808.4,3706.7,1692.7,3694.1,1593.9,3622.6z" />
      <path fill="#ffffff" d="M8080.6,3645.7c-33.6-21-277.6-256.6-540.6-519.5c-401.7-405.9-477.5-494.3-490.1-559.5c-21-111.5,18.9-210.3,126.2-309.2c96.7-88.3,199.8-122,298.7-96.8c65.2,14.7,1018,948.6,1070.6,1045.4c37.9,71.5,37.9,191.4,0,265c-33.6,65.2-128.3,155.7-195.6,191.4C8280.4,3698.3,8152.1,3689.9,8080.6,3645.7z" />
      <path fill="#ffffff" d="M4704.7,2810.7c-620.5-79.9-1175.8-349.2-1607-782.4c-378.6-382.8-624.7-837.1-740.4-1371.4c-54.7-250.3-54.7-801.4,0-1051.7c153.5-710.9,563.7-1316.7,1159-1718.5c265-178.8,616.3-323.9,957-397.5c250.3-54.7,801.4-54.7,1051.7,0c1076.9,231.4,1884.6,1039,2116,2116c54.7,250.3,54.7,801.4,0,1051.7c-73.6,340.7-218.7,692-397.5,957c-117.8,174.6-162,227.2-357.6,427c-349.2,355.5-805.6,605.8-1318.8,721.5C5392.5,2802.3,4870.9,2831.7,4704.7,2810.7z M5485.1,2089.3c742.5-193.5,1295.7-757.2,1485-1508.1c54.7-216.6,48.4-721.5-10.5-936c-204-750.9-761.4-1297.8-1510.2-1485c-199.8-50.5-700.4-50.5-900.2,0c-361.8,90.4-679.4,265-944.4,517.4c-683.6,654.1-820.3,1697.4-326,2507.2c143,233.5,433.3,523.7,666.8,666.8c201.9,122,462.7,223,694.1,267.1C4858.3,2160.8,5272.6,2146,5485.1,2089.3z" />
      <path fill="#ffffff" d="M268.7,408.7c-101-50.5-153.5-130.4-166.2-252.4C90,23.8,123.6-77.2,205.6-155l63.1-61l732-6.3l729.9-6.3l71.5,48.4c109.4,73.6,151.4,170.4,138.8,319.7c-10.5,143-54.7,216.7-162,269.2c-63.1,33.6-145.1,37.9-755.1,37.9C413.9,446.5,331.8,442.3,268.7,408.7z" />
      <path fill="#ffffff" d="M8219.4,408.7C8110,354,8063.8,276.2,8055.4,137.3c-10.5-147.2,33.7-246.1,138.8-315.5c71.5-48.4,77.8-48.4,780.3-48.4s708.8,0,780.3,48.4C9845.3-117.2,9900-9.9,9900,110s-54.7,227.2-145.1,288.2c-71.5,48.4-77.8,48.4-767.7,48.4C8366.6,446.5,8282.5,442.3,8219.4,408.7z" />
      <path fill="#ffffff" d="M2496.2-1953.4c-63.1-25.2-999.1-952.8-1043.3-1032.8c-35.8-67.3-37.9-191.4-6.3-254.5c35.8-67.3,126.2-162,191.4-195.6c73.6-37.9,193.5-37.9,265,0c31.6,16.8,275.5,250.3,544.8,521.6c412.3,414.4,488,502.7,500.6,567.9c18.9,105.2-16.8,204-111.5,296.6C2721.3-1936.6,2616.1-1907.1,2496.2-1953.4z" />
      <path fill="#ffffff" d="M7291.8-1953.4c-79.9-31.6-206.1-166.2-233.5-246.1c-52.6-157.8-33.7-185.1,492.2-715.1c269.2-271.3,513.2-504.8,544.8-521.6c197.7-103.1,479.6,84.1,479.6,317.6c0,42.1-12.6,101-29.5,132.5c-46.3,86.2-982.3,1009.6-1049.6,1034.9C7424.3-1926.1,7361.2-1926.1,7291.8-1953.4z" />
      <path fill="#ffffff" d="M4864.6-2960.9c-31.5-10.5-77.8-35.8-101-56.8c-98.9-88.3-101-111.5-101-854c0-696.2,0-702.5,48.4-774c128.3-193.5,448-193.5,576.3,0c48.4,71.5,48.4,77.8,48.4,778.2c0,662.6-2.1,710.9-42.1,774c-21,37.9-63.1,82-92.5,101C5140.1-2952.5,4948.7-2933.6,4864.6-2960.9z" />
    </g>
  </g>
</svg>