<?xml version="1.0" encoding="utf-8"?>
<!-- Svg Vector Icons : http://www.onlinewebfonts.com/icon -->
<!DOCTYPE svg PUBLIC "-//W3C//DTD SVG 1.1//EN" "http://www.w3.org/Graphics/SVG/1.1/DTD/svg11.dtd">
<svg version="1.1" xmlns="http://www.w3.org/2000/svg" xmlns:xlink="http://www.w3.org/1999/xlink" x="0px" y="0px" viewBox="0 0 1000 1000" enable-background="new 0 0 1000 1000" xml:space="preserve">
<metadata> Svg Vector Icons : http://www.onlinewebfonts.com/icon </metadata>
<g><path fill="#ffffff" d="M506.2,230.3L506.2,230.3L506.2,230.3c6.4,0,12.4-2.5,16.9-7c4.5-4.5,7-10.5,7-16.9l-0.4-163.8c0-13.1-10.7-23.8-23.9-23.8c-6.4,0-12.4,2.5-16.9,7c-4.5,4.5-7,10.5-7,16.9l0.4,163.8C482.3,219.6,493.1,230.3,506.2,230.3z"/><path d="M730.7,307.2c6.4,0,12.4-2.5,16.9-7l118.1-118.7c4.5-4.5,7-10.5,6.9-16.9c0-6.4-2.5-12.4-7-16.9c-4.5-4.5-10.5-6.9-16.8-6.9c-6.4,0-12.4,2.5-16.9,7L713.7,266.5c-9.3,9.3-9.2,24.5,0.1,33.8C718.3,304.8,724.3,307.2,730.7,307.2z"/><path d="M220.6,513.4c4.5-4.5,7-10.5,6.9-16.9c0-13.1-10.7-23.8-23.9-23.8l-169.9,0.4C20.6,473.1,10,483.9,10,497c0,13.1,10.7,23.8,23.9,23.8h0l169.9-0.4C210.2,520.4,216.1,517.9,220.6,513.4z"/><path d="M273.3,690.3c-6.5,0-12.8,2.7-17.3,7.4l-116.8,123c-4.4,4.6-6.7,10.7-6.5,17.1c0.2,6.4,2.8,12.3,7.4,16.7c4.5,4.2,10.3,6.6,16.4,6.6c6.5,0,12.8-2.7,17.3-7.4l116.8-123c4.4-4.6,6.7-10.7,6.6-17.1c-0.2-6.4-2.8-12.3-7.4-16.7C285.3,692.6,279.5,690.3,273.3,690.3z"/><path d="M282.1,297.8c4.5,4.2,10.3,6.6,16.4,6.6c6.5,0,12.8-2.7,17.3-7.4c9.1-9.5,8.7-24.7-0.9-33.7L182.6,137.5c-4.5-4.2-10.3-6.6-16.4-6.6c-6.5,0-12.8,2.7-17.3,7.4c-4.4,4.6-6.7,10.7-6.6,17.1c0.2,6.4,2.8,12.3,7.4,16.7L282.1,297.8z"/><path d="M297.2,520.8c0-124.4,101.2-225.5,225.5-225.5c57.9,0,113,21.9,155.1,61.8c4.5,4.2,10.3,6.5,16.4,6.5c6.5,0,12.8-2.7,17.3-7.5c4.4-4.6,6.7-10.7,6.5-17.1c-0.2-6.4-2.8-12.3-7.4-16.7c-51-48.3-117.7-74.8-187.9-74.8c-73,0-141.6,28.4-193.2,80c-51.6,51.6-80,120.2-80,193.2c0,70,26.5,136.7,74.5,187.6c4.5,4.8,10.8,7.5,17.4,7.5c6.1,0,11.9-2.3,16.4-6.5c4.6-4.4,7.3-10.3,7.5-16.7c0.2-6.4-2.1-12.4-6.5-17.1C319,633.6,297.2,578.6,297.2,520.8z"/><path d="M905.3,487.5c-54.6-54.6-127.3-84.7-204.5-84.7c-77.3,0-149.9,30.1-204.5,84.7c-54.6,54.6-84.7,127.3-84.7,204.5s30.1,149.9,84.7,204.5c54.6,54.6,127.3,84.7,204.5,84.7c77.3,0,149.9-30.1,204.5-84.7C959.9,841.9,990,769.3,990,692S959.9,542.1,905.3,487.5z M717.5,708.5c-3.8,3.8-8.7,6.2-14,6.8l-0.3,0.1l-1.9,0c-0.1,0-0.2,0-0.3,0l-2.3-0.1c-7.1-0.6-13.6-4.4-17.5-10.4l-97-147.7c-7.1-10.8-4.1-25.3,6.7-32.4c10.5-6.8,25.5-3.7,32.4,6.7l54.1,82.4l-0.3-132.1c0-6.3,2.4-12.1,6.8-16.6c4.4-4.4,10.3-6.9,16.5-6.9c12.9,0,23.4,10.5,23.4,23.3l0.5,210.3C724.4,698.2,721.9,704.1,717.5,708.5z"/></g>
</svg>