<?xml version="1.0" standalone="no"?>
<!DOCTYPE svg PUBLIC "-//W3C//DTD SVG 1.0//EN" "http://www.w3.org/TR/2001/REC-SVG-20010904/DTD/svg10.dtd">
<svg xmlns="http://www.w3.org/2000/svg" xmlns:xlink="http://www.w3.org/1999/xlink" id="body_1" width="32" height="32">

<g transform="matrix(0.08338806 0 0 0.08338806 0 0)">
	<g>
        <path  d="M62.772 95.042C 90.904 54.899 137.496 30 187.343 30C 271.086 30 339.21698 98.13 339.21698 181.874L339.21698 181.874L369.21698 181.874C 369.217 81.588 287.629 0 187.343 0C 152.30501 0 118.282005 9.989 88.952 28.888C 70.368 40.862 54.245 56.032 41.221 73.593L41.221 73.593L2.081 34.641L2.081 148.006L115.991005 148.006L62.772 95.042z" stroke="none" fill="#ffffff" fill-rule="nonzero" />
        <path  d="M381.667 235.742L267.757 235.742L320.97598 288.707C 292.844 328.849 246.25198 353.749 196.40498 353.749C 112.66098 353.749 44.53099 285.619 44.53099 201.875L44.53099 201.875L14.530991 201.875C 14.530991 302.161 96.11899 383.749 196.40498 383.749C 231.44298 383.749 265.46698 373.75998 294.796 354.861C 313.38 342.886 329.503 327.716 342.52698 310.155L342.52698 310.155L381.666 349.107L381.666 235.742L381.667 235.742z" stroke="none" fill="#ffffff" fill-rule="nonzero" />
	</g>
	<g>
	</g>
	<g>
	</g>
	<g>
	</g>
	<g>
	</g>
	<g>
	</g>
	<g>
	</g>
	<g>
	</g>
	<g>
	</g>
	<g>
	</g>
	<g>
	</g>
	<g>
	</g>
	<g>
	</g>
	<g>
	</g>
	<g>
	</g>
	<g>
	</g>
</g>
</svg>